<svg id="eCS8uo5Mdna1" xmlns="http://www.w3.org/2000/svg" xmlns:xlink="http://www.w3.org/1999/xlink" viewBox="0 0 50 50" shape-rendering="geometricPrecision" text-rendering="geometricPrecision"><defs><linearGradient id="eCS8uo5Mdna2-fill" x1="15" y1="3" x2="15" y2="33" spreadMethod="pad" gradientUnits="userSpaceOnUse" gradientTransform="translate(0 0)"><stop id="eCS8uo5Mdna2-fill-0" offset="0%" stop-color="#877eff"/><stop id="eCS8uo5Mdna2-fill-1" offset="46.1458%" stop-color="#685dff"/><stop id="eCS8uo5Mdna2-fill-2" offset="100%" stop-color="#3121ff"/></linearGradient></defs><path d="M27.8333,18c0,7.0877-5.7456,12.8333-12.8333,12.8333s-12.83334-5.7456-12.83334-12.8333s5.74568-12.83334,12.83334-12.83334s12.8333,5.74564,12.8333,12.83334ZM30,18c0,8.2843-6.7157,15-15,15s-15-6.7157-15-15s6.71573-15,15-15s15,6.71573,15,15Zm-6.7241-6.7241c0,.857-.6947,1.5517-1.5517,1.5517s-1.5517-.6947-1.5517-1.5517.6947-1.55172,1.5517-1.55172s1.5517.69472,1.5517,1.55172ZM10.4879,19.209c.6677,2.4919,3.2291,3.9707,5.721,3.303s3.9707-3.2291,3.303-5.721-3.2291-3.9707-5.721-3.303-3.97075,3.2291-3.303,5.721Zm-2.09287.5608c.97741,3.6477,4.72687,5.8125,8.37457,4.8351s5.8125-4.7269,4.8351-8.3747-4.7268-5.8125-8.3746-4.835c-3.64774.9774-5.81248,4.7268-4.83507,8.3746Z" transform="matrix(1.4 0 0 1.4 4-.2)" clip-rule="evenodd" fill="url(#eCS8uo5Mdna2-fill)" fill-rule="evenodd"/></svg>
